<svg width="160" height="32" viewBox="0 0 160 32" fill="none" xmlns="http://www.w3.org/2000/svg">
<path d="M55.1253 16.676V30.643C55.1253 31.0948 54.7488 31.4713 54.2971 31.4713H48.2735C47.8218 31.4713 47.4453 31.0948 47.4453 30.643V8.58186C47.4453 8.13009 47.8218 7.75362 48.2735 7.75362H54.2971C54.7488 7.75362 55.1253 8.13009 55.1253 8.58186V10.3136C56.6312 8.43127 58.7771 7.22656 61.7512 7.22656C64.5371 7.22656 66.9841 8.35597 68.4524 10.5019C70.2594 8.35597 72.8194 7.22656 75.9441 7.22656C81.2524 7.22656 84.9041 10.3513 84.9041 16.3372V30.643C84.9041 31.0948 84.5277 31.4713 84.0759 31.4713H78.0524C77.6006 31.4713 77.2241 31.0948 77.2241 30.643V17.956C77.2241 15.3583 75.7559 14.0783 73.7606 14.0783C72.1041 14.0783 70.7865 15.1324 69.9959 16.676V30.643C69.9959 31.0948 69.6194 31.4713 69.1677 31.4713H63.1441C62.6924 31.4713 62.3159 31.0948 62.3159 30.643V17.956C62.3159 15.3583 60.8477 14.0783 58.8524 14.0783C57.1583 14.0783 55.8783 15.1324 55.1253 16.676Z" fill="black"/>
<path d="M94.9942 31.9614C90.5518 31.9614 86.7871 29.0249 86.7871 24.4697C86.7871 20.2908 89.5353 18.3708 94.6553 17.0155L101.206 15.3214C101.018 13.7402 99.7753 12.9873 97.78 12.9873C96.0106 12.9873 94.7306 13.6649 94.1659 15.0202C94.0153 15.3967 93.6012 15.6226 93.2248 15.5097L88.0295 14.2673C87.5401 14.1544 87.2765 13.6273 87.4271 13.1755C88.933 9.1473 93.0365 7.03906 98.0436 7.03906C104.782 7.03906 108.66 10.2014 108.66 15.8108V30.6438C108.66 31.0955 108.284 31.472 107.832 31.472H102.147C101.695 31.472 101.319 31.1332 101.319 30.6814L101.281 29.4391L101.244 29.4767C99.2859 31.1332 97.4036 31.9614 94.9942 31.9614ZM96.9142 26.0132C97.893 26.0132 98.6836 25.712 99.813 25.072L101.131 24.2814L101.168 20.4414L97.7424 21.3826C95.4083 22.0602 94.3918 22.6249 94.3918 23.9426C94.3918 25.4108 95.6718 26.0132 96.9142 26.0132Z" fill="black"/>
<path d="M120.932 20.2918L118.598 22.4376V30.6824C118.598 31.1341 118.222 31.5106 117.77 31.5106H111.859C111.408 31.5106 111.031 31.1341 111.031 30.6824V0.828235C111.031 0.376471 111.408 0 111.859 0H117.77C118.222 0 118.598 0.376471 118.598 0.828235V14.3059L125.488 7.98118C125.638 7.83059 125.827 7.75529 126.052 7.75529H133.318C134.071 7.75529 134.41 8.69647 133.883 9.18588L126.805 15.6235L134.862 30.2306C135.163 30.7953 134.749 31.4353 134.147 31.4353H127.257C126.956 31.4353 126.655 31.2471 126.542 30.9835L120.932 20.2918Z" fill="black"/>
<path d="M145.93 31.998C139.342 31.998 133.318 27.8568 133.318 19.5368C133.318 11.6686 139.116 7.11328 145.441 7.11328C151.765 7.11328 156.81 11.7062 156.998 18.9721C157.036 19.725 157.036 20.2898 157.036 20.6662C157.036 21.118 156.66 21.4945 156.208 21.4945H140.923C141.149 24.3556 143.445 26.125 146.344 26.125C148.415 26.125 150.071 25.2592 151.276 23.7156C151.54 23.3768 152.029 23.3015 152.368 23.5274L156.208 26.0874C156.584 26.3509 156.697 26.878 156.434 27.2545C154.363 30.2662 150.975 31.998 145.93 31.998ZM141.074 16.8262H149.356C149.318 14.1156 147.323 12.9486 145.215 12.9486C143.295 12.9486 141.3 14.078 141.074 16.8262Z" fill="black"/>
<mask id="mask0_2139_203038" style="mask-type:luminance" maskUnits="userSpaceOnUse" x="28" y="7" width="9" height="25">
<path d="M29.4122 7.79297H35.3605C35.8122 7.79297 36.1887 8.16944 36.1887 8.6212V30.6071C36.1887 31.0589 35.8122 31.4353 35.3605 31.4353H29.4122C28.9605 31.4353 28.584 31.0589 28.584 30.6071V8.6212C28.584 8.16944 28.9605 7.79297 29.4122 7.79297Z" fill="white"/>
</mask>
<g mask="url(#mask0_2139_203038)">
<path d="M20.9414 10.6168L35.2849 5.30859L43.8685 28.5745L29.5249 33.8827L20.9414 10.6168Z" fill="url(#paint0_linear_2139_203038)"/>
</g>
<mask id="mask1_2139_203038" style="mask-type:luminance" maskUnits="userSpaceOnUse" x="2" y="7" width="17" height="25">
<path d="M11.9437 8.09488L2.08012 27.709C1.89189 28.1231 2.04248 28.6125 2.4566 28.8008L7.76483 31.4737C8.17895 31.6619 8.66836 31.5114 8.85659 31.0972L18.7201 11.4455C18.9084 11.0314 18.7578 10.5419 18.3437 10.3537L13.0354 7.68076C12.9225 7.60547 12.8095 7.60547 12.6589 7.60547C12.3954 7.64312 12.0942 7.7937 11.9437 8.09488Z" fill="white"/>
</mask>
<g mask="url(#mask1_2139_203038)">
<path d="M-6.87891 11.4062L16.274 1.42969L27.7187 27.8956L4.5658 37.9097L-6.87891 11.4062Z" fill="url(#paint1_linear_2139_203038)"/>
</g>
<mask id="mask2_2139_203038" style="mask-type:luminance" maskUnits="userSpaceOnUse" x="16" y="7" width="12" height="25">
<path d="M20.2644 8.17091L16.0479 29.5544C15.9726 30.0062 16.2362 30.4203 16.6879 30.5333L22.5232 31.7003C22.975 31.7756 23.3891 31.5121 23.502 31.0603L27.7185 9.67679C27.7938 9.22503 27.5303 8.81091 27.0785 8.69797L21.2432 7.53091C21.2056 7.53091 21.1303 7.53091 21.0926 7.53091C20.6785 7.49326 20.3397 7.75679 20.2644 8.17091Z" fill="white"/>
</mask>
<g mask="url(#mask2_2139_203038)">
<path d="M8.06641 10.3912L26.4005 3.65234L35.6617 28.8759L17.3652 35.6147L8.06641 10.3912Z" fill="url(#paint2_linear_2139_203038)"/>
</g>
<defs>
<linearGradient id="paint0_linear_2139_203038" x1="21.19" y1="23.7431" x2="37.2546" y2="17.8198" gradientUnits="userSpaceOnUse">
<stop stop-color="#B02DE9"/>
<stop offset="0.02" stop-color="#B02DE9"/>
<stop offset="0.8" stop-color="#6D00CC"/>
<stop offset="1" stop-color="#6D00CC"/>
</linearGradient>
<linearGradient id="paint1_linear_2139_203038" x1="7.17319" y1="21.0698" x2="24.4423" y2="13.6039" gradientUnits="userSpaceOnUse">
<stop stop-color="#FF00FF"/>
<stop offset="0.17" stop-color="#E90CF9"/>
<stop offset="0.54" stop-color="#C023ED"/>
<stop offset="0.73" stop-color="#B02DE9"/>
<stop offset="1" stop-color="#B02DE9"/>
</linearGradient>
<linearGradient id="paint2_linear_2139_203038" x1="3.17929" y1="26.5283" x2="38.5794" y2="13.4966" gradientUnits="userSpaceOnUse">
<stop stop-color="#FF00FF"/>
<stop offset="0.02" stop-color="#FF00FF"/>
<stop offset="0.09" stop-color="#E90CF9"/>
<stop offset="0.23" stop-color="#C023ED"/>
<stop offset="0.3" stop-color="#B02DE9"/>
<stop offset="0.42" stop-color="#A42BE3"/>
<stop offset="0.63" stop-color="#8626D5"/>
<stop offset="0.85" stop-color="#6021C3"/>
<stop offset="1" stop-color="#6021C3"/>
</linearGradient>
</defs>
</svg>
